# Blender v2.83.13 OBJ File: ''
# www.blender.org
mtllib untitled.mtl
o node0_hull_2_node0_hull_2.002
v 6.833205 -11.388410 15.623500
v 7.289330 -13.663910 44.742428
v 7.289330 -19.123610 44.742428
v -7.272472 -13.663910 44.742428
v -7.272472 -19.123610 14.256639
v 7.289330 -19.123610 14.256639
v -7.272472 -11.388410 14.256639
v -7.272472 -19.123610 44.742428
v -7.272472 -11.842750 40.644829
v 7.289330 -11.843510 40.644829
v 7.289330 -11.388410 14.253650
v 7.289330 -13.208050 44.285809
v -7.272472 -13.208810 44.285809
v -7.272472 -11.388410 15.620520
v 6.833205 -12.298610 42.011688
v -7.272472 -12.297850 42.008698
vt 0.985023 1.000000
vt 0.910435 0.968677
vt 0.910337 0.000000
vt 1.000000 1.000000
vt 1.000000 1.000000
vt 1.000000 0.000000
vt 0.000098 0.000000
vt 0.000098 1.000000
vt 0.000098 0.000000
vt 1.000000 0.000000
vt 0.865603 0.000000
vt 0.865603 1.000000
vt 0.044930 0.968677
vt 0.000000 1.000000
vt 0.985023 0.000000
vt 0.044832 0.000000
vn -0.0000 0.9285 0.3713
vn 0.0000 0.0000 1.0000
vn 0.0000 -1.0000 0.0000
vn 1.0000 0.0000 0.0000
vn -1.0000 0.0000 0.0000
vn 0.0001 0.9998 0.0182
vn 0.0000 -0.0004 -1.0000
vn 0.0000 1.0000 -0.0000
vn -0.0002 0.0000 -1.0000
vn 0.0517 0.9985 0.0172
vn 0.0000 0.7077 0.7065
vn -0.0000 0.7083 0.7059
vn -0.0000 0.9998 0.0182
vn 0.0000 0.9488 0.3159
vn 0.1166 0.9300 0.3485
vn -0.0000 0.9285 0.3714
vn -0.0000 0.9486 0.3165
usemtl None
s off
f 12/1/1 15/2/1 16/3/1
f 3/4/2 2/5/2 4/6/2
f 3/4/3 5/7/3 6/8/3
f 2/5/4 3/4/4 6/8/4
f 5/7/5 4/6/5 7/9/5
f 3/4/2 4/6/2 8/10/2
f 4/6/5 5/7/5 8/10/5
f 5/7/3 3/4/3 8/10/3
f 7/9/5 4/6/5 9/11/5
f 2/5/4 6/8/4 10/12/4
f 1/13/6 9/11/6 10/12/6
f 6/8/7 5/7/7 11/14/7
f 7/9/8 1/13/8 11/14/8
f 5/7/9 7/9/9 11/14/9
f 10/12/4 6/8/4 11/14/4
f 1/13/10 10/12/10 11/14/10
f 4/6/11 2/5/11 12/1/11
f 2/5/4 10/12/4 12/1/4
f 9/11/5 4/6/5 13/15/5
f 4/6/12 12/1/12 13/15/12
f 1/13/8 7/9/8 14/16/8
f 9/11/13 1/13/13 14/16/13
f 7/9/5 9/11/5 14/16/5
f 10/12/14 9/11/14 15/2/14
f 12/1/15 10/12/15 15/2/15
f 9/11/5 13/15/5 16/3/5
f 13/15/16 12/1/16 16/3/16
f 15/2/17 9/11/17 16/3/17
o node0_hull_1_node0_hull_1.002
v -7.727528 1.349205 -5.310025
v 7.288528 -11.384040 14.251650
v -7.271669 -11.384040 14.251650
v 7.288528 -23.669670 3.333507
v 7.288528 6.359546 1.513816
v -7.271669 -24.126240 4.696271
v 7.288528 -1.834854 -6.221874
v 7.288528 -24.126240 13.794729
v -7.271669 4.989833 4.241348
v -7.271669 -19.575460 0.149048
v -7.271669 -24.126240 13.794729
v -7.271669 5.446404 -3.490334
v 7.744387 2.715933 -4.855103
v 7.288528 4.079676 5.151194
v -7.271669 -1.834854 -6.221874
v 7.288528 -19.575460 0.149048
v 7.288528 3.169519 -5.764948
v 7.744387 -20.029049 11.520110
v -7.727528 -20.029049 11.520110
v -7.727528 3.626090 4.241348
v 7.744387 3.626090 4.241348
v 7.288528 5.899990 -2.580489
v -7.271669 6.359546 -1.215721
v 7.744387 -20.939199 1.968739
v -7.271669 1.805776 -6.221874
v -7.727528 -20.939199 1.968739
v 7.288528 -19.118889 14.251650
v -7.271669 -21.395769 1.058893
v -7.271669 4.079676 5.151194
v 7.288528 -24.126240 4.696271
v -7.271669 6.359546 1.513816
v -7.271669 -19.118889 14.251650
vt 0.000000 0.977682
vt 0.164252 1.000000
vt 0.164252 1.000000
vt 0.000000 0.533281
vt 0.000000 0.977682
vt 0.417972 1.000000
vt 0.417972 1.000000
vt 0.925215 0.555501
vt 1.000000 0.377839
vt 0.955070 0.511061
vt 0.731206 0.000000
vt 0.149276 0.311179
vt 0.731206 0.000000
vt 0.149276 0.311179
vt 0.880482 0.066758
vt 0.895360 0.022318
vt 0.835650 0.044538
vt 0.134397 0.866582
vt 0.910337 0.511061
vt 0.910337 0.511061
vt 0.134397 0.866582
vt 0.984926 0.177858
vt 0.970047 0.133418
vt 1.000000 0.244518
vt 0.104542 0.400059
vt 0.014976 0.466719
vt 0.850627 0.000000
vt 0.104542 0.400059
vt 0.089565 0.355619
vt 0.925215 0.555501
vt 0.000000 0.533281
vt 1.000000 0.377839
vn 0.0000 -0.0909 0.9959
vn 0.0000 -1.0000 0.0000
vn 0.0000 0.5072 0.8618
vn 0.0198 0.8472 0.5310
vn 0.0000 -0.3380 -0.9412
vn 0.9011 0.0394 -0.4318
vn -1.0000 0.0000 0.0000
vn -0.9961 0.0259 0.0842
vn 0.9886 0.1499 -0.0150
vn 0.9121 0.2079 0.3533
vn 0.8852 0.3941 0.2470
vn 0.9961 0.0259 0.0842
vn 1.0000 0.0000 0.0000
vn 0.9880 0.1538 -0.0173
vn 0.0170 0.7590 -0.6508
vn 0.8991 0.3322 -0.2849
vn -0.9895 0.1340 -0.0538
vn -0.9933 0.1122 -0.0268
vn 0.0209 0.9935 -0.1115
vn -0.0056 0.9280 -0.3725
vn 0.9847 -0.0483 -0.1675
vn 0.7958 -0.3718 -0.4780
vn 0.9396 -0.1157 -0.3221
vn 0.9944 -0.1051 0.0100
vn -0.9104 0.2482 -0.3309
vn -0.8945 0.0000 -0.4472
vn 0.0000 0.0000 -1.0000
vn -0.0311 0.5999 -0.7995
vn 0.0227 0.0909 -0.9956
vn -0.9899 -0.1416 0.0000
vn -0.9711 -0.0741 -0.2268
vn -0.9396 -0.1157 -0.3221
vn -0.9944 -0.1051 0.0100
vn 0.0000 0.0000 1.0000
vn 0.9864 0.0000 0.1646
vn 0.9854 -0.0155 0.1696
vn -0.0311 -0.7994 -0.6001
vn 0.0274 -0.6137 -0.7890
vn 0.0000 -0.4471 -0.8945
vn -0.8944 -0.3578 -0.2686
vn -0.9127 -0.1827 -0.3656
vn 0.0000 0.7070 0.7072
vn -0.9121 0.2079 0.3533
vn -0.9040 0.3022 0.3023
vn 0.0000 -0.9482 -0.3177
vn 0.9784 -0.1962 -0.0657
vn 0.9899 -0.1416 0.0000
vn 0.0000 0.8936 0.4488
vn -0.9366 0.3131 0.1572
vn 0.0000 1.0000 0.0000
vn -0.9864 0.1645 0.0000
vn -0.9864 0.0000 0.1646
vn -0.9854 -0.0155 0.1696
usemtl None
s off
f 27/17/18 43/18/18 48/19/18
f 22/20/19 24/21/19 27/17/19
f 19/22/20 18/23/20 30/24/20
f 21/25/21 25/26/21 30/24/21
f 23/27/22 26/28/22 31/29/22
f 26/28/22 23/27/22 32/30/22
f 29/31/23 23/27/23 33/32/23
f 17/33/24 35/34/24 36/35/24
f 35/34/25 19/22/25 36/35/25
f 29/31/26 21/25/26 37/36/26
f 30/24/27 18/23/27 37/36/27
f 21/25/28 30/24/28 37/36/28
f 18/23/29 34/37/29 37/36/29
f 34/37/30 29/31/30 37/36/30
f 21/25/31 29/31/31 38/38/31
f 33/32/32 28/39/32 38/38/32
f 29/31/33 33/32/33 38/38/33
f 28/39/34 17/33/34 39/40/34
f 17/33/35 36/35/35 39/40/35
f 21/25/36 38/38/36 39/40/36
f 38/38/37 28/39/37 39/40/37
f 23/27/38 29/31/38 40/41/38
f 20/42/39 32/30/39 40/41/39
f 32/30/40 23/27/40 40/41/40
f 34/37/41 24/21/41 40/41/41
f 29/31/30 34/37/30 40/41/30
f 17/33/42 28/39/42 41/43/42
f 31/29/43 17/33/43 41/43/43
f 23/27/44 31/29/44 41/43/44
f 28/39/45 33/32/45 41/43/45
f 33/32/46 23/27/46 41/43/46
f 22/20/47 27/17/47 42/44/47
f 17/33/48 31/29/48 42/44/48
f 31/29/49 26/28/49 42/44/49
f 35/34/24 17/33/24 42/44/24
f 27/17/50 35/34/50 42/44/50
f 18/23/51 19/22/51 43/18/51
f 27/17/18 24/21/18 43/18/18
f 34/37/52 18/23/52 43/18/52
f 24/21/53 34/37/53 43/18/53
f 20/42/54 22/20/54 44/45/54
f 32/30/55 20/42/55 44/45/55
f 26/28/56 32/30/56 44/45/56
f 22/20/57 42/44/57 44/45/57
f 42/44/58 26/28/58 44/45/58
f 19/22/20 30/24/20 45/46/20
f 30/24/59 25/26/59 45/46/59
f 36/35/60 19/22/60 45/46/60
f 25/26/61 36/35/61 45/46/61
f 22/20/62 20/42/62 46/47/62
f 24/21/19 22/20/19 46/47/19
f 20/42/63 40/41/63 46/47/63
f 40/41/64 24/21/64 46/47/64
f 25/26/65 21/25/65 47/48/65
f 36/35/66 25/26/66 47/48/66
f 21/25/67 39/40/67 47/48/67
f 39/40/68 36/35/68 47/48/68
f 19/22/69 35/34/69 48/19/69
f 35/34/70 27/17/70 48/19/70
f 43/18/51 19/22/51 48/19/51
